<svg width="427" height="219" viewBox="0 0 427 219" fill="none" xmlns="http://www.w3.org/2000/svg">
<path d="M39.5 70.4375C39.1667 71.7708 38.5417 72.6042 37.625 72.9375C36.7083 73.2292 35.7917 73.1875 34.875 72.8125C34 72.4375 33.25 71.7917 32.625 70.875C32.0417 69.9583 31.875 68.9583 32.125 67.875C32.75 65.0417 33.6458 61.9167 34.8125 58.5C36.0208 55.0417 37.2083 51.6042 38.375 48.1875C37.75 47.2292 37.25 46.2708 36.875 45.3125C36.5 44.3125 36.3125 43.2708 36.3125 42.1875C36.3125 41.1042 36.7083 39.9792 37.5 38.8125C38.3333 37.6042 39.3125 36.5 40.4375 35.5C41.6042 34.5 42.7917 33.6875 44 33.0625C45.25 32.3958 46.3125 32.0625 47.1875 32.0625C48.7292 32.0625 49.875 32.5833 50.625 33.625C51.4167 34.6667 51.8125 36.0625 51.8125 37.8125C51.8125 38.7708 51.6458 39.7292 51.3125 40.6875C51.0208 41.6042 50.6875 42.4792 50.3125 43.3125C49.9375 44.1042 49.5833 44.7917 49.25 45.375C48.9583 45.9583 48.7917 46.3333 48.75 46.5C50.25 49.1667 51.8125 51.5208 53.4375 53.5625C55.0625 55.6042 56.5417 57.625 57.875 59.625C59.25 61.625 60.375 63.75 61.25 66C62.125 68.25 62.5625 70.8958 62.5625 73.9375C62.5625 74.6875 62.5 75.4583 62.375 76.25C62.2917 77.0417 62.1458 77.7917 61.9375 78.5C63.4375 78.2083 64.75 77.75 65.875 77.125C67.0417 76.5 68.0417 75.7917 68.875 75C69.75 74.1667 70.4583 73.2708 71 72.3125C71.5833 71.3542 72.0625 70.3542 72.4375 69.3125C72.8958 68.1042 73.3542 67.2292 73.8125 66.6875C74.2708 66.1458 74.7917 65.875 75.375 65.875C75.9167 65.875 76.4583 66.0625 77 66.4375C77.5833 66.7708 78.0833 67.2083 78.5 67.75C78.9583 68.2917 79.3125 68.8542 79.5625 69.4375C79.8542 70.0208 80 70.5417 80 71C80 71.625 79.8333 72.375 79.5 73.25C79.1667 74.125 78.7083 75.0208 78.125 75.9375C77.5833 76.8542 76.9583 77.75 76.25 78.625C75.5417 79.4583 74.8125 80.1875 74.0625 80.8125C72.0625 82.4375 69.7083 83.8125 67 84.9375C64.2917 86.0208 60.9375 86.7083 56.9375 87C55.3958 88.3333 53.5625 89.4167 51.4375 90.25C49.3542 91.125 47 91.5625 44.375 91.5625C43.0417 91.5625 41.6667 91.3958 40.25 91.0625C38.875 90.7292 37.5417 90.2917 36.25 89.75C35 89.25 33.8542 88.6875 32.8125 88.0625C31.7708 87.4375 30.9375 86.8125 30.3125 86.1875C28.7292 84.6875 27.7083 83.1875 27.25 81.6875C26.7917 80.1458 26.6875 78.7708 26.9375 77.5625C27.1458 76.3542 27.5833 75.375 28.25 74.625C28.9167 73.8333 29.6042 73.4375 30.3125 73.4375C30.7292 73.4375 31.375 73.625 32.25 74C33.1667 74.3333 34.2083 74.7917 35.375 75.375C36.5417 75.9167 37.8125 76.5 39.1875 77.125C40.5625 77.75 41.9375 78.3542 43.3125 78.9375C44.6875 79.4792 46.0208 79.9375 47.3125 80.3125C48.6458 80.6458 49.8542 80.8125 50.9375 80.8125C51.6458 79.9792 52.2917 78.875 52.875 77.5C53.4583 76.125 53.75 74.625 53.75 73C53.75 71 53.4792 69.1458 52.9375 67.4375C52.3958 65.7292 51.6875 64.1458 50.8125 62.6875C49.9375 61.2292 48.9375 59.875 47.8125 58.625C46.7292 57.3333 45.625 56.125 44.5 55C43.5 57.4583 42.625 59.8958 41.875 62.3125C41.125 64.6875 40.3333 67.3958 39.5 70.4375ZM120.438 66.875C120.521 66.375 120.792 65.9583 121.25 65.625C121.75 65.2917 122.312 65.0625 122.938 64.9375C123.562 64.8125 124.208 64.8125 124.875 64.9375C125.583 65.0625 126.188 65.3542 126.688 65.8125C127.229 66.2292 127.604 66.8333 127.812 67.625C128.062 68.375 128.042 69.3542 127.75 70.5625C127.375 72.3125 126.75 73.9583 125.875 75.5C125.042 77 123.979 78.3333 122.688 79.5C121.396 80.6667 119.875 81.5833 118.125 82.25C116.375 82.9167 114.417 83.25 112.25 83.25C111.083 83.25 109.979 83.1875 108.938 83.0625C107.938 82.9375 106.958 82.7083 106 82.375C104.417 85.125 102.375 87.3333 99.875 89C97.375 90.7083 94.2917 91.5625 90.625 91.5625C87.375 91.5625 84.5833 90.9167 82.25 89.625C79.9167 88.375 77.9792 86.6667 76.4375 84.5C74.8958 82.2917 73.75 79.75 73 76.875C72.2917 74 71.9375 70.9583 71.9375 67.75C71.9375 63.0417 72.4792 58.8333 73.5625 55.125C74.6875 51.375 75.9792 48.2083 77.4375 45.625C78.8958 43 80.3333 41 81.75 39.625C83.2083 38.25 84.2917 37.5625 85 37.5625C85.8333 37.5625 86.5833 37.9375 87.25 38.6875C87.9583 39.3958 88.4583 40.25 88.75 41.25C89.0833 42.2083 89.1667 43.1875 89 44.1875C88.875 45.1875 88.3958 45.9583 87.5625 46.5C87.0625 47.2917 86.4583 48.2083 85.75 49.25C85.0833 50.2917 84.4375 51.6042 83.8125 53.1875C83.2292 54.7292 82.7292 56.625 82.3125 58.875C81.8958 61.125 81.6875 63.8333 81.6875 67C81.6875 69.7083 81.9167 72.0625 82.375 74.0625C82.875 76.0625 83.5417 77.75 84.375 79.125C85.25 80.4583 86.2292 81.4583 87.3125 82.125C88.4375 82.7917 89.625 83.125 90.875 83.125C92.7083 83.125 94.2083 82.6875 95.375 81.8125C96.5833 80.8958 97.6042 79.7083 98.4375 78.25C95.4375 75.6667 93.1458 72.3958 91.5625 68.4375C90.0208 64.4375 89.25 60.125 89.25 55.5C89.25 53.5 89.4583 51.6042 89.875 49.8125C90.3333 47.9792 90.9792 46.375 91.8125 45C92.6875 43.625 93.7708 42.5417 95.0625 41.75C96.3542 40.9167 97.8542 40.5 99.5625 40.5C101.062 40.5 102.479 41.0417 103.812 42.125C105.146 43.2083 106.312 44.7083 107.312 46.625C108.312 48.5417 109.083 50.8125 109.625 53.4375C110.208 56.0625 110.5 58.9167 110.5 62C110.5 64.375 110.354 66.7292 110.062 69.0625C109.771 71.3958 109.312 73.6458 108.688 75.8125C109.146 75.9792 109.562 76.0833 109.938 76.125C110.354 76.125 110.792 76.125 111.25 76.125C112.625 76.125 113.833 75.875 114.875 75.375C115.958 74.875 116.875 74.2083 117.625 73.375C118.375 72.5417 118.979 71.5625 119.438 70.4375C119.896 69.3125 120.229 68.125 120.438 66.875ZM96 55C96 57.875 96.4375 60.6042 97.3125 63.1875C98.2292 65.7708 99.4167 68.0208 100.875 69.9375C101.125 67.8958 101.25 65.9375 101.25 64.0625C101.25 61.8958 101.208 59.8958 101.125 58.0625C101.083 56.1875 100.938 54.5833 100.688 53.25C100.479 51.9167 100.167 50.875 99.75 50.125C99.375 49.3333 98.8542 48.9375 98.1875 48.9375C96.7292 48.9375 96 50.9583 96 55ZM141.438 91.5625C138.604 91.5625 135.854 91.0417 133.188 90C130.521 88.9583 128.146 87.4167 126.062 85.375C124.021 83.3333 122.375 80.8125 121.125 77.8125C119.917 74.8125 119.312 71.3333 119.312 67.375C119.312 63.7083 119.833 60.1042 120.875 56.5625C121.917 53.0208 123.354 49.875 125.188 47.125C127.021 44.3333 129.208 42.0833 131.75 40.375C134.333 38.6667 137.146 37.8125 140.188 37.8125C142.396 37.8125 144.271 38.2708 145.812 39.1875C147.354 40.0625 148.604 41.1458 149.562 42.4375C150.521 43.6875 151.208 45.0417 151.625 46.5C152.083 47.9583 152.312 49.25 152.312 50.375C152.312 51.2083 152.083 51.9583 151.625 52.625C151.208 53.2917 150.688 53.8542 150.062 54.3125C149.438 54.7708 148.75 55.125 148 55.375C147.25 55.5833 146.583 55.6667 146 55.625C145.417 55.5833 144.938 55.375 144.562 55C144.229 54.625 144.125 54.0625 144.25 53.3125C144.083 52.7708 143.917 52.1042 143.75 51.3125C143.625 50.5208 143.375 49.7708 143 49.0625C142.667 48.3125 142.188 47.6875 141.562 47.1875C140.938 46.6458 140.083 46.375 139 46.375C137.833 46.375 136.688 46.9375 135.562 48.0625C134.479 49.1458 133.5 50.6458 132.625 52.5625C131.792 54.4792 131.104 56.7083 130.562 59.25C130.062 61.7917 129.812 64.5 129.812 67.375C129.812 69.9167 130.125 72.1667 130.75 74.125C131.417 76.0833 132.333 77.7292 133.5 79.0625C134.667 80.3958 136.042 81.4167 137.625 82.125C139.25 82.7917 141 83.125 142.875 83.125C145.375 83.125 147.542 82.6667 149.375 81.75C151.25 80.7917 152.833 79.5417 154.125 78C155.417 76.4583 156.458 74.7292 157.25 72.8125C158.042 70.8958 158.625 68.9583 159 67C159.292 65.5833 159.875 64.6458 160.75 64.1875C161.667 63.6875 162.583 63.5625 163.5 63.8125C164.458 64.0625 165.271 64.6042 165.938 65.4375C166.646 66.2292 166.938 67.1875 166.812 68.3125C166.646 69.6042 166.333 71.0833 165.875 72.75C165.458 74.4167 164.833 76.1042 164 77.8125C163.167 79.5208 162.104 81.2083 160.812 82.875C159.562 84.5 158.021 85.9583 156.188 87.25C154.354 88.5417 152.208 89.5833 149.75 90.375C147.333 91.1667 144.562 91.5625 141.438 91.5625ZM166.25 26.4375C165.208 26.4375 164.208 26.2292 163.25 25.8125C162.333 25.3958 161.521 24.8333 160.812 24.125C160.146 23.4167 159.604 22.6042 159.188 21.6875C158.771 20.7292 158.562 19.7083 158.562 18.625C158.562 17.5 158.771 16.4583 159.188 15.5C159.604 14.5417 160.146 13.7292 160.812 13.0625C161.521 12.3542 162.333 11.8125 163.25 11.4375C164.208 11.0208 165.208 10.8125 166.25 10.8125C167.375 10.8125 168.417 11.0208 169.375 11.4375C170.333 11.8125 171.146 12.3542 171.812 13.0625C172.521 13.7292 173.062 14.5417 173.438 15.5C173.854 16.4583 174.062 17.5 174.062 18.625C174.062 19.7083 173.854 20.7292 173.438 21.6875C173.062 22.6042 172.521 23.4167 171.812 24.125C171.146 24.8333 170.333 25.3958 169.375 25.8125C168.417 26.2292 167.375 26.4375 166.25 26.4375ZM169.188 77.25C169.188 77.5417 169.208 78.0208 169.25 78.6875C169.292 79.3125 169.417 79.9583 169.625 80.625C169.833 81.2917 170.167 81.875 170.625 82.375C171.083 82.875 171.729 83.125 172.562 83.125C173.812 83.125 174.896 82.6667 175.812 81.75C176.771 80.8333 177.583 79.6875 178.25 78.3125C178.958 76.9375 179.542 75.4583 180 73.875C180.458 72.25 180.833 70.7292 181.125 69.3125C181.375 68.0208 181.75 67.0833 182.25 66.5C182.792 65.9167 183.354 65.6042 183.938 65.5625C184.562 65.4792 185.167 65.625 185.75 66C186.375 66.375 186.917 66.875 187.375 67.5C187.875 68.0833 188.229 68.75 188.438 69.5C188.688 70.25 188.729 70.9583 188.562 71.625C187.979 73.75 187.208 75.9792 186.25 78.3125C185.333 80.6458 184.146 82.7917 182.688 84.75C181.229 86.7083 179.479 88.3333 177.438 89.625C175.396 90.9167 173 91.5625 170.25 91.5625C168.542 91.5625 167.021 91.2292 165.688 90.5625C164.354 89.9375 163.229 89.0833 162.312 88C161.396 86.9167 160.688 85.6458 160.188 84.1875C159.729 82.7292 159.5 81.1875 159.5 79.5625V45.375C159.5 44.1667 159.396 43.2917 159.188 42.75C159.021 42.2083 158.938 41.7083 158.938 41.25C158.938 40.625 159.271 40.125 159.938 39.75C160.604 39.3333 161.396 39.125 162.312 39.125C164.438 39.125 166.104 39.6875 167.312 40.8125C168.562 41.8958 169.188 43.2083 169.188 44.75V77.25ZM218.312 83.125C219.604 83.125 220.708 82.6667 221.625 81.75C222.583 80.8333 223.396 79.6875 224.062 78.3125C224.771 76.9375 225.333 75.4583 225.75 73.875C226.208 72.25 226.583 70.7292 226.875 69.3125C227.167 67.9792 227.583 67.0208 228.125 66.4375C228.708 65.8125 229.333 65.5 230 65.5C230.5 65.5 231 65.6667 231.5 66C232.042 66.2917 232.521 66.6875 232.938 67.1875C233.396 67.6875 233.75 68.25 234 68.875C234.292 69.5 234.438 70.125 234.438 70.75C234.438 70.8333 234.438 70.9375 234.438 71.0625C234.438 71.1875 234.396 71.375 234.312 71.625C233.771 73.75 233.021 75.9792 232.062 78.3125C231.146 80.6458 229.958 82.7917 228.5 84.75C227.042 86.7083 225.271 88.3333 223.188 89.625C221.146 90.9167 218.75 91.5625 216 91.5625C213.75 91.5625 211.792 91.0833 210.125 90.125C208.458 89.1667 207.146 87.8958 206.188 86.3125C204.896 87.7708 203.333 89 201.5 90C199.708 91.0417 197.604 91.5625 195.188 91.5625C192.688 91.5625 190.479 91.0625 188.562 90.0625C186.688 89.0625 185.104 87.7083 183.812 86C182.521 84.25 181.542 82.2083 180.875 79.875C180.25 77.5 179.938 74.9583 179.938 72.25C179.938 66.9167 180.792 62.125 182.5 57.875C184.208 53.625 186.479 50.0208 189.312 47.0625C192.146 44.0625 195.375 41.7708 199 40.1875C202.667 38.6042 206.458 37.8125 210.375 37.8125C212.125 37.8125 213.542 38.2917 214.625 39.25C215.708 40.2083 216.25 41.5208 216.25 43.1875C216.25 44.2708 216.125 45.0417 215.875 45.5C215.667 45.9167 215.25 46.125 214.625 46.125C214.042 46.125 213.438 46.0833 212.812 46C212.188 45.9167 211.542 45.875 210.875 45.875C208.458 45.875 206 46.4167 203.5 47.5C201 48.5417 198.729 50.1667 196.688 52.375C194.688 54.5417 193.042 57.3125 191.75 60.6875C190.458 64.0208 189.812 68 189.812 72.625C189.812 76 190.458 78.6042 191.75 80.4375C193.042 82.2292 194.812 83.125 197.062 83.125C198.812 83.125 200.271 82.4792 201.438 81.1875C202.604 79.8542 203.542 78.2917 204.25 76.5V56.75C204.25 56.125 204.208 55.6042 204.125 55.1875C204.083 54.7708 204.021 54.4167 203.938 54.125C203.896 53.8333 203.854 53.5833 203.812 53.375C203.771 53.125 203.75 52.8958 203.75 52.6875C203.75 52.0208 204.062 51.5 204.688 51.125C205.354 50.7083 206.146 50.5 207.062 50.5C209.188 50.5 210.875 51.0625 212.125 52.1875C213.375 53.2708 214 54.5833 214 56.125V77.25C214 77.9583 214.083 78.6667 214.25 79.375C214.417 80.0417 214.667 80.6667 215 81.25C215.333 81.7917 215.771 82.25 216.312 82.625C216.896 82.9583 217.562 83.125 218.312 83.125ZM237.688 50.125C238.146 49.25 238.583 48.0833 239 46.625C239.458 45.125 239.875 43.4792 240.25 41.6875C240.667 39.8958 241.042 38.0208 241.375 36.0625C241.708 34.1042 242 32.1875 242.25 30.3125C242.5 28.4375 242.688 26.6875 242.812 25.0625C242.979 23.3958 243.062 21.9792 243.062 20.8125C243.062 16.5625 242.75 13.4583 242.125 11.5C241.5 9.5 240.667 8.5 239.625 8.5C239.292 8.5 239 8.66667 238.75 9C238.5 9.33333 238.292 9.77083 238.125 10.3125C237.958 10.8125 237.833 11.375 237.75 12C237.708 12.5833 237.688 13.125 237.688 13.625V50.125ZM255.875 69.4375C256.125 68.1875 256.5 67.2917 257 66.75C257.542 66.1667 258.104 65.8542 258.688 65.8125C259.312 65.7292 259.938 65.875 260.562 66.25C261.188 66.5833 261.729 67.0417 262.188 67.625C262.646 68.2083 262.979 68.875 263.188 69.625C263.438 70.3333 263.479 71.0417 263.312 71.75C262.729 73.4583 261.896 75.4583 260.812 77.75C259.729 80.0417 258.354 82.2083 256.688 84.25C255.021 86.2917 253.062 88.0208 250.812 89.4375C248.562 90.8542 245.979 91.5625 243.062 91.5625C240.604 91.5625 238.438 91.1458 236.562 90.3125C234.688 89.5208 233.104 88.3958 231.812 86.9375C230.562 85.4375 229.604 83.6667 228.938 81.625C228.312 79.5417 228 77.2292 228 74.6875V16.4375C228 14.0625 228.292 11.875 228.875 9.875C229.5 7.83333 230.333 6.10417 231.375 4.6875C232.458 3.22917 233.708 2.10417 235.125 1.3125C236.542 0.479167 238.042 0.0625 239.625 0.0625C241.5 0.0625 243.083 0.416667 244.375 1.125C245.667 1.79167 246.729 2.6875 247.562 3.8125C248.396 4.9375 249.042 6.22917 249.5 7.6875C250 9.14583 250.354 10.6458 250.562 12.1875C250.771 13.6875 250.896 15.1875 250.938 16.6875C250.979 18.1458 251 19.4792 251 20.6875C251 23.8125 250.708 27.1042 250.125 30.5625C249.542 33.9792 248.792 37.3542 247.875 40.6875C247 44.0208 246.021 47.2292 244.938 50.3125C243.896 53.3542 242.875 56.0625 241.875 58.4375C240.917 60.8125 240.042 62.75 239.25 64.25C238.5 65.75 237.979 66.625 237.688 66.875V74.3125C237.688 76.8958 238.229 79.0208 239.312 80.6875C240.396 82.3125 242.125 83.125 244.5 83.125C245.958 83.125 247.312 82.6875 248.562 81.8125C249.854 80.8958 250.979 79.7708 251.938 78.4375C252.938 77.0625 253.771 75.5833 254.438 74C255.104 72.375 255.583 70.8542 255.875 69.4375ZM266.438 50.125C266.896 49.25 267.333 48.0833 267.75 46.625C268.208 45.125 268.625 43.4792 269 41.6875C269.417 39.8958 269.792 38.0208 270.125 36.0625C270.458 34.1042 270.75 32.1875 271 30.3125C271.25 28.4375 271.438 26.6875 271.562 25.0625C271.729 23.3958 271.812 21.9792 271.812 20.8125C271.812 16.5625 271.5 13.4583 270.875 11.5C270.25 9.5 269.417 8.5 268.375 8.5C268.042 8.5 267.75 8.66667 267.5 9C267.25 9.33333 267.042 9.77083 266.875 10.3125C266.708 10.8125 266.583 11.375 266.5 12C266.458 12.5833 266.438 13.125 266.438 13.625V50.125ZM284.625 69.4375C284.875 68.1875 285.25 67.2917 285.75 66.75C286.292 66.1667 286.854 65.8542 287.438 65.8125C288.062 65.7292 288.688 65.875 289.312 66.25C289.938 66.5833 290.479 67.0417 290.938 67.625C291.396 68.2083 291.729 68.875 291.938 69.625C292.188 70.3333 292.229 71.0417 292.062 71.75C291.479 73.4583 290.646 75.4583 289.562 77.75C288.479 80.0417 287.104 82.2083 285.438 84.25C283.771 86.2917 281.812 88.0208 279.562 89.4375C277.312 90.8542 274.729 91.5625 271.812 91.5625C269.354 91.5625 267.188 91.1458 265.312 90.3125C263.438 89.5208 261.854 88.3958 260.562 86.9375C259.312 85.4375 258.354 83.6667 257.688 81.625C257.062 79.5417 256.75 77.2292 256.75 74.6875V16.4375C256.75 14.0625 257.042 11.875 257.625 9.875C258.25 7.83333 259.083 6.10417 260.125 4.6875C261.208 3.22917 262.458 2.10417 263.875 1.3125C265.292 0.479167 266.792 0.0625 268.375 0.0625C270.25 0.0625 271.833 0.416667 273.125 1.125C274.417 1.79167 275.479 2.6875 276.312 3.8125C277.146 4.9375 277.792 6.22917 278.25 7.6875C278.75 9.14583 279.104 10.6458 279.312 12.1875C279.521 13.6875 279.646 15.1875 279.688 16.6875C279.729 18.1458 279.75 19.4792 279.75 20.6875C279.75 23.8125 279.458 27.1042 278.875 30.5625C278.292 33.9792 277.542 37.3542 276.625 40.6875C275.75 44.0208 274.771 47.2292 273.688 50.3125C272.646 53.3542 271.625 56.0625 270.625 58.4375C269.667 60.8125 268.792 62.75 268 64.25C267.25 65.75 266.729 66.625 266.438 66.875V74.3125C266.438 76.8958 266.979 79.0208 268.062 80.6875C269.146 82.3125 270.875 83.125 273.25 83.125C274.708 83.125 276.062 82.6875 277.312 81.8125C278.604 80.8958 279.729 79.7708 280.688 78.4375C281.688 77.0625 282.521 75.5833 283.188 74C283.854 72.375 284.333 70.8542 284.625 69.4375ZM330.938 69.3125C331.312 67.9792 331.75 67.0208 332.25 66.4375C332.75 65.8125 333.333 65.5 334 65.5C334.5 65.5 335.021 65.6667 335.562 66C336.104 66.2917 336.583 66.6875 337 67.1875C337.458 67.6875 337.812 68.25 338.062 68.875C338.354 69.5 338.5 70.125 338.5 70.75C338.5 70.8333 338.5 71 338.5 71.25C338.5 71.5 338.458 71.75 338.375 72C337.292 75.7083 336.021 79 334.562 81.875C333.146 84.7083 331.604 87.25 329.938 89.5C328.312 91.75 326.625 93.75 324.875 95.5C323.125 97.2917 321.375 98.9375 319.625 100.438V122.562C319.625 125.938 319.229 128.771 318.438 131.062C317.688 133.396 316.688 135.271 315.438 136.688C314.188 138.146 312.771 139.188 311.188 139.812C309.604 140.438 308 140.75 306.375 140.75C304.583 140.75 302.938 140.354 301.438 139.562C299.938 138.812 298.625 137.771 297.5 136.438C296.417 135.104 295.562 133.542 294.938 131.75C294.354 129.958 294.062 128.042 294.062 126C294.062 122.75 294.479 119.875 295.312 117.375C296.188 114.875 297.354 112.583 298.812 110.5C300.271 108.417 301.958 106.458 303.875 104.625C305.792 102.833 307.812 101 309.938 99.125V82.875C308.396 85.4583 306.604 87.5625 304.562 89.1875C302.521 90.8542 300.125 91.6875 297.375 91.6875C295.25 91.6875 293.333 91.25 291.625 90.375C289.958 89.5 288.542 88.2708 287.375 86.6875C286.208 85.0625 285.312 83.125 284.688 80.875C284.104 78.5833 283.812 76.0417 283.812 73.25C283.812 69.875 284.042 66.4792 284.5 63.0625C285 59.6458 285.542 56.5625 286.125 53.8125C286.792 50.6042 287.562 47.5 288.438 44.5C288.646 43.9583 288.792 43.4167 288.875 42.875C289 42.2917 289.25 41.7708 289.625 41.3125C290 40.8542 290.583 40.4792 291.375 40.1875C292.208 39.8958 293.479 39.75 295.188 39.75C296.771 39.75 297.792 40.0417 298.25 40.625C298.708 41.1667 298.875 41.8125 298.75 42.5625C298.667 43.3125 298.417 44.0833 298 44.875C297.625 45.6667 297.375 46.3125 297.25 46.8125C296.667 49.1875 296.146 51.3542 295.688 53.3125C295.229 55.2708 294.833 57.25 294.5 59.25C294.208 61.2083 293.979 63.2708 293.812 65.4375C293.646 67.5625 293.562 69.9583 293.562 72.625C293.562 76.125 294.062 78.7708 295.062 80.5625C296.104 82.3542 297.562 83.25 299.438 83.25C300.729 83.25 301.917 82.7708 303 81.8125C304.125 80.8542 305.125 79.5833 306 78C306.917 76.375 307.708 74.5417 308.375 72.5C309.042 70.4167 309.562 68.25 309.938 66V45.375C309.938 44.1667 309.854 43.2917 309.688 42.75C309.521 42.2083 309.438 41.7083 309.438 41.25C309.438 40.625 309.75 40.125 310.375 39.75C311.042 39.3333 311.833 39.125 312.75 39.125C314.875 39.125 316.542 39.6875 317.75 40.8125C319 41.8958 319.625 43.2083 319.625 44.75V89.6875C321.958 87.1042 324.104 84.1667 326.062 80.875C328.021 77.5833 329.646 73.7292 330.938 69.3125ZM306.375 132.688C307.375 132.688 308.125 132.271 308.625 131.438C309.125 130.604 309.458 129.625 309.625 128.5C309.833 127.417 309.938 126.312 309.938 125.188C309.938 124.062 309.938 123.188 309.938 122.562V108.875C307.854 110.958 306.167 113.312 304.875 115.938C303.625 118.562 303 121.792 303 125.625C303 127.625 303.292 129.292 303.875 130.625C304.5 132 305.333 132.688 306.375 132.688Z" fill="url(#paint0_linear_6001_12)"/>
<path d="M95.65 136.4C93.15 136.4 91 135.5 89.2 133.7C87.4 131.9 86.5 129.75 86.5 127.25C86.5 124.55 87.4 122.3 89.2 120.5C91.1 118.7 93.25 117.8 95.65 117.8C98.25 117.8 100.45 118.75 102.25 120.65C104.05 122.45 104.95 124.65 104.95 127.25C104.95 129.65 104.05 131.8 102.25 133.7C100.55 135.5 98.35 136.4 95.65 136.4Z" fill="#FFCC99"/>
<path d="M116.216 138.84C115.488 138.84 114.816 138.616 114.2 138.168C113.64 137.72 113.36 137.076 113.36 136.236V116.496C113.36 115.544 113.64 114.844 114.2 114.396C114.816 113.892 115.488 113.64 116.216 113.64C116.776 113.64 117.308 113.78 117.812 114.06C118.316 114.284 118.68 114.704 118.904 115.32C119.016 115.656 119.072 115.964 119.072 116.244C119.912 115.348 121.004 114.62 122.348 114.06C123.692 113.5 125.008 113.22 126.296 113.22C129.936 113.22 132.624 114.676 134.36 117.588C135.032 116.412 136.124 115.404 137.636 114.564C139.204 113.668 141.108 113.22 143.348 113.22C146.372 113.22 148.78 114.228 150.572 116.244C152.364 118.26 153.26 121.228 153.26 125.148V136.236C153.26 137.076 152.952 137.72 152.336 138.168C151.72 138.616 151.076 138.84 150.404 138.84C149.676 138.84 149.004 138.616 148.388 138.168C147.828 137.72 147.548 137.076 147.548 136.236V125.652C147.548 120.836 145.756 118.428 142.172 118.428C140.156 118.428 138.7 118.96 137.804 120.024C136.908 121.088 136.348 122.348 136.124 123.804V136.236C136.124 137.076 135.816 137.72 135.2 138.168C134.584 138.616 133.94 138.84 133.268 138.84C132.54 138.84 131.868 138.616 131.252 138.168C130.692 137.72 130.412 137.076 130.412 136.236V125.652C130.412 123.188 129.936 121.368 128.984 120.192C128.032 119.016 126.744 118.428 125.12 118.428C122.712 118.428 121.088 119.184 120.248 120.696C119.464 122.152 119.072 123.776 119.072 125.568V136.236C119.072 137.076 118.764 137.72 118.148 138.168C117.588 138.616 116.944 138.84 116.216 138.84ZM170.88 138.84C168.472 138.84 166.316 138.28 164.412 137.16C162.508 136.04 161.024 134.5 159.96 132.54C158.896 130.524 158.364 128.284 158.364 125.82C158.364 123.412 158.896 121.256 159.96 119.352C161.024 117.448 162.508 115.964 164.412 114.9C166.316 113.78 168.472 113.22 170.88 113.22C172.448 113.22 173.848 113.5 175.08 114.06C176.312 114.564 177.376 115.236 178.272 116.076C178.384 115.292 178.72 114.704 179.28 114.312C179.84 113.864 180.456 113.64 181.128 113.64C181.856 113.64 182.5 113.892 183.06 114.396C183.676 114.844 183.984 115.544 183.984 116.496V136.236C183.984 137.076 183.676 137.72 183.06 138.168C182.5 138.616 181.856 138.84 181.128 138.84C180.4 138.84 179.728 138.616 179.112 138.168C178.552 137.72 178.272 137.076 178.272 136.236V135.9C177.376 136.796 176.312 137.496 175.08 138C173.848 138.56 172.448 138.84 170.88 138.84ZM171.384 133.632C173.512 133.632 175.192 132.932 176.424 131.532C177.656 130.076 178.272 128.172 178.272 125.82C178.272 123.58 177.656 121.788 176.424 120.444C175.192 119.1 173.512 118.428 171.384 118.428C169.2 118.428 167.436 119.1 166.092 120.444C164.748 121.788 164.076 123.58 164.076 125.82C164.076 128.172 164.748 130.076 166.092 131.532C167.436 132.932 169.2 133.632 171.384 133.632ZM201.649 138.84C199.241 138.84 197.085 138.28 195.181 137.16C193.277 136.04 191.793 134.5 190.729 132.54C189.665 130.524 189.133 128.284 189.133 125.82C189.133 123.412 189.665 121.256 190.729 119.352C191.793 117.448 193.277 115.964 195.181 114.9C197.085 113.78 199.241 113.22 201.649 113.22C203.217 113.22 204.617 113.472 205.849 113.976C207.081 114.48 208.145 115.18 209.041 116.076V104.316C209.041 103.364 209.321 102.664 209.881 102.216C210.497 101.712 211.169 101.46 211.897 101.46C212.625 101.46 213.269 101.712 213.829 102.216C214.445 102.664 214.753 103.364 214.753 104.316V136.236C214.753 137.076 214.445 137.72 213.829 138.168C213.269 138.616 212.625 138.84 211.897 138.84C211.169 138.84 210.497 138.616 209.881 138.168C209.321 137.72 209.041 137.076 209.041 136.236V135.9C208.145 136.796 207.081 137.496 205.849 138C204.617 138.56 203.217 138.84 201.649 138.84ZM202.153 133.632C204.281 133.632 205.961 132.932 207.193 131.532C208.425 130.076 209.041 128.172 209.041 125.82C209.041 123.58 208.425 121.788 207.193 120.444C205.961 119.1 204.281 118.428 202.153 118.428C199.969 118.428 198.205 119.1 196.861 120.444C195.517 121.788 194.845 123.58 194.845 125.82C194.845 128.172 195.517 130.076 196.861 131.532C198.205 132.932 199.969 133.632 202.153 133.632ZM227.295 125.568V136.236C227.295 137.076 226.987 137.72 226.371 138.168C225.811 138.616 225.167 138.84 224.439 138.84C223.711 138.84 223.039 138.616 222.423 138.168C221.863 137.72 221.583 137.076 221.583 136.236V116.496C221.583 115.544 221.863 114.844 222.423 114.396C223.039 113.892 223.711 113.64 224.439 113.64C225.167 113.64 225.811 113.892 226.371 114.396C226.987 114.844 227.295 115.544 227.295 116.496V116.832C228.079 115.768 229.087 114.9 230.319 114.228C231.607 113.556 232.951 113.22 234.351 113.22C235.023 113.22 235.695 113.304 236.367 113.472C237.039 113.64 237.543 113.976 237.879 114.48C238.215 114.984 238.383 115.544 238.383 116.16C238.383 116.888 238.131 117.56 237.627 118.176C237.179 118.736 236.507 119.016 235.611 119.016C235.219 119.016 234.799 118.96 234.351 118.848C233.959 118.736 233.455 118.68 232.839 118.68C231.215 118.68 229.871 119.296 228.807 120.528C227.799 121.76 227.295 123.44 227.295 125.568ZM245.613 138.84C244.885 138.84 244.213 138.616 243.597 138.168C243.037 137.72 242.757 137.076 242.757 136.236V116.076C242.757 115.124 243.037 114.424 243.597 113.976C244.213 113.472 244.885 113.22 245.613 113.22C246.341 113.22 246.985 113.472 247.545 113.976C248.161 114.424 248.469 115.124 248.469 116.076V136.236C248.469 137.076 248.161 137.72 247.545 138.168C246.985 138.616 246.341 138.84 245.613 138.84ZM245.697 108.6C244.633 108.6 243.709 108.264 242.925 107.592C242.197 106.864 241.833 105.996 241.833 104.988C241.833 104.036 242.197 103.224 242.925 102.552C243.709 101.824 244.633 101.46 245.697 101.46C246.705 101.46 247.573 101.824 248.301 102.552C249.029 103.224 249.393 104.036 249.393 104.988C249.393 105.996 249.029 106.864 248.301 107.592C247.573 108.264 246.705 108.6 245.697 108.6ZM266.641 138.84C264.233 138.84 262.077 138.28 260.173 137.16C258.269 136.04 256.785 134.5 255.721 132.54C254.657 130.524 254.125 128.284 254.125 125.82C254.125 123.412 254.657 121.256 255.721 119.352C256.785 117.448 258.269 115.964 260.173 114.9C262.077 113.78 264.233 113.22 266.641 113.22C268.209 113.22 269.609 113.472 270.841 113.976C272.073 114.48 273.137 115.18 274.033 116.076V104.316C274.033 103.364 274.313 102.664 274.873 102.216C275.489 101.712 276.161 101.46 276.889 101.46C277.617 101.46 278.261 101.712 278.821 102.216C279.437 102.664 279.745 103.364 279.745 104.316V136.236C279.745 137.076 279.437 137.72 278.821 138.168C278.261 138.616 277.617 138.84 276.889 138.84C276.161 138.84 275.489 138.616 274.873 138.168C274.313 137.72 274.033 137.076 274.033 136.236V135.9C273.137 136.796 272.073 137.496 270.841 138C269.609 138.56 268.209 138.84 266.641 138.84ZM267.145 133.632C269.273 133.632 270.953 132.932 272.185 131.532C273.417 130.076 274.033 128.172 274.033 125.82C274.033 123.58 273.417 121.788 272.185 120.444C270.953 119.1 269.273 118.428 267.145 118.428C264.961 118.428 263.197 119.1 261.853 120.444C260.509 121.788 259.837 123.58 259.837 125.82C259.837 128.172 260.509 130.076 261.853 131.532C263.197 132.932 264.961 133.632 267.145 133.632Z" fill="#D095F5"/>
<defs>
<linearGradient id="paint0_linear_6001_12" x1="60" y1="94" x2="327" y2="20.5" gradientUnits="userSpaceOnUse">
<stop stop-color="#6699FF"/>
<stop offset="1" stop-color="#E477FF"/>
</linearGradient>
</defs>
</svg>
